Patient4_TMGait_0pt5_02_left_40_EMG.mot
version=1
nRows=27
nColumns=33
inDegrees=no
endheader
time	1LAddLong	2LGlutMax	3LGlutMed	4LIliopsoas	5LSemiMemb	6LBicFemLong	7LRecFem	8LVastMed	9LVastLat	10LGasMed	11LTibAnt	12lTibPost	13LPeroneusLong	14LSol	15LExtDigLong	16LFlexDigLong	17RAddLong	18RGlutMax	19RGlutMed	20RIliopsoas	21RSemiMemb	22RBicFemLong	23RRecFem	24RVastMed	25RVastLat	26RGasMed	27RTibAnt	28RTibPost	29RPeroneusLong	30RSol	31RExtDigLong	32RFlexDigLong
52.022	0.003357	1.4497	0.054016	0.006409	0.002136	-0.006256	-0.34531	0.006409	0.13886	0.17975	0.038147	-0.11276	-0.40817	-0.17075	0.24536	-0.013428	0.012054	-0.2179	-0.19775	-0.020294	0.012207	0.17548	0.31509	-0.071411	-0.029297	-0.031281	0.025635	0.14328	-0.46829	-0.82306	-0.001984	-0.003357
52.023	0.028381	1.4848	-0.005341	0.029755	-0.041656	-0.14999	-0.23025	-0.000458	0.24384	0.49789	0.01358	-0.086823	-0.35904	-0.061646	0.28961	0.002441	0.008698	-0.28107	-0.18768	-0.030365	0.014496	0.17029	0.33035	-0.095673	-0.034943	-0.041199	0.041199	0.10605	-0.17792	-0.49011	-0.002289	-0.011902
52.024	0.034027	1.5117	-0.061493	0.048523	-0.072784	0.16953	-0.22186	-0.010681	0.091553	0.16678	0.016937	-0.078278	0.45776	-0.21545	0.18204	0.081482	-0.009766	-0.29511	-0.14511	0.066376	0.019379	0.1683	0.36072	-0.12253	-0.04715	-0.040741	0.046997	0.026093	0.23468	0.027161	-0.006104	-0.004272
52.025	0.044861	1.5025	-0.049591	0.031891	-0.022278	0.40298	-0.2359	0.012512	-0.22736	-0.5426	-0.012054	-0.042267	1.4871	-0.37155	0.03006	-0.15442	-0.04715	-0.25253	-0.13641	0.1503	0.009155	0.17883	0.34882	-0.10254	-0.031891	-0.034027	0.033264	0.003052	0.28519	0.67474	-0.005493	-0.006256
52.026	0.021667	1.4511	0.052032	-0.014038	0.014038	0.54382	-0.2327	0.025177	-0.48538	-0.24963	0.033264	0.028687	-0.19898	-0.43457	-0.059052	0.10101	-0.044556	-0.20523	-0.08606	0.1358	-0.007019	0.18646	0.36682	-0.11093	-0.041656	-0.02655	0.033417	0.059967	0.052643	0.72296	-0.004578	-0.010834
52.027	0.015259	1.4061	0.042267	-0.020142	-0.016327	0.63171	-0.29159	0.019531	-0.39825	0.032501	-0.007782	-0.10712	0.014954	-0.35477	-0.022583	0.25711	-0.007324	-0.23331	-0.036163	-0.011597	-0.016174	0.15427	0.37476	-0.098572	-0.026245	-0.034485	0.039978	-0.027466	-0.29373	0.61981	-0.005341	-0.005341
52.028	0.011597	1.259	0.032959	-0.010834	-0.001831	0.78888	-0.33402	0.022278	-0.25055	-0.27359	-0.031281	-0.13763	1.1224	-0.18433	0.023499	-0.050964	-0.057373	-0.25085	-0.045624	-0.074463	-0.018616	0.1503	0.22919	-0.080414	-0.031281	-0.023804	0.035553	-0.02243	-0.2005	0.87006	-0.00885	-0.009613
52.029	0.014648	1.138	-0.028992	-0.001984	-0.042419	0.84885	-0.32638	0.036163	-0.15076	-0.6308	-0.021057	-0.071106	0.81604	-0.061493	0.00473	-0.15442	-0.058136	-0.31525	-0.10132	-0.03479	-0.021057	0.14999	0.18921	-0.089111	-0.038605	-0.028992	0.024719	-0.034332	0.050507	0.80139	-0.010681	-0.006409
52.03	0.007782	0.98816	-0.11581	0.002899	-0.023193	0.50201	-0.33539	0.017242	0.098877	-0.62744	-0.022583	-0.030518	-0.26611	-0.051727	-0.047913	-0.059967	-0.071716	-0.32272	-0.077667	-0.009613	-0.018921	0.19226	0.22827	-0.04364	-0.01709	-0.010376	0.011902	0.025787	0.18539	0.45364	-0.010681	-0.001984
52.031	0.011902	0.85098	-0.22217	-0.002289	-0.005341	-0.22461	-0.29404	0.001526	0.44739	-0.4837	-0.060425	-0.014496	-1.3045	-0.19699	-0.037079	-0.012207	-0.06897	-0.32074	-0.077515	0.021057	0.018921	0.20355	0.27893	-0.011902	-0.005798	0.004578	0.033417	-0.003967	0.44296	0.18249	-0.004425	0.000305
52.032	0.006714	0.74493	-0.26245	0.000763	-0.013123	-0.51498	-0.13351	-0.010071	0.65857	-0.26672	-0.018158	-0.022583	-1.0095	0.003967	0.032959	0.000153	-0.075378	-0.34332	-0.14023	0.091705	0.067444	0.28625	0.25421	0.001221	-0.015717	0.005341	0.045166	-0.014496	0.59692	0.15595	-0.002747	-0.002289
52.033	-0.000153	0.70816	-0.18768	0.01236	-0.032654	-0.051727	-0.066071	-0.0177	0.59815	-0.17883	-0.02594	-0.010376	0.51437	0.15411	-0.035095	0.008698	-0.088348	-0.32364	-0.065155	-0.010986	0.090637	0.30518	0.27924	-0.006866	-0.009155	0.007629	0.055542	-0.023499	0.41565	-0.022888	-0.002441	-0.001984
52.034	-0.018616	0.62241	-0.12909	-0.002136	-0.036774	-0.067749	-0.11078	-0.028534	0.31769	-0.15106	-0.025482	-0.00885	0.23056	0.23941	-0.17639	0.007477	-0.10788	-0.38696	-0.073853	-0.076294	0.098572	0.29221	0.28686	-0.007782	-0.01709	-0.000916	0.057983	0.001221	0.22293	-0.099487	-0.005951	-0.001831
52.035	-0.008545	0.61783	-0.033264	0.019989	-0.022583	-0.26581	-0.18936	-0.019836	0.06958	-0.047455	0.044556	-0.015106	-0.6163	0.13199	-0.16861	-0.000153	-0.091095	-0.42877	-0.15732	-0.027466	0.10178	0.2832	0.28686	-0.031281	-0.011444	0.003662	0.058899	-0.031433	0.044708	-0.10239	-0.004883	0.005188
52.036	0.002289	0.61706	0.049133	0.008392	-0.017395	-0.63522	-0.24674	-0.017395	-0.11414	-0.041046	0.068817	-0.017548	-0.72678	0.012207	-0.19394	-0.006409	-0.044098	-0.53482	-0.16769	-0.002441	0.083313	0.242	0.31952	-0.002289	-0.000153	0.001526	0.055847	0.018311	0.016022	0.03067	-0.001831	0.004272
52.037	-0.005188	0.53268	-0.023041	0.011749	-0.044861	-0.42938	-0.16876	-0.018005	-0.3363	-0.11978	0.06134	-0.01358	-0.57068	0.092163	-0.12802	0.009766	-0.002441	-0.63538	-0.1683	0.022888	0.073395	0.2095	0.37293	0.002747	0.001526	0.006104	0.054016	0.015106	0.048218	0.3183	-0.004883	0.00061
52.038	-0.00885	0.50736	-0.097961	0.015259	-0.041199	-0.15839	-0.11704	-0.007019	-0.40543	-0.1471	0.041046	-0.014496	0.005341	0.070801	-0.13275	0.023956	0.050354	-0.71045	-0.16678	0.010529	0.072174	0.19104	0.41489	-0.050354	-0.001678	0.014191	0.072021	-0.054779	0.050964	0.61554	-0.003204	-0.006714
52.039	-0.010071	0.42221	-0.052948	0.016937	-0.055389	-0.13077	-0.13275	0.005798	-0.23086	-0.13092	0.052185	-0.007172	0.5751	0.08194	-0.027771	0.027466	0.067596	-0.81284	-0.23392	-0.019684	0.039368	0.17364	0.43701	-0.09964	-0.01236	0.029602	0.052185	-0.086823	0.12924	0.25681	-0.003662	-0.000458
52.04	-0.011444	0.36789	-0.076752	0.008087	-0.10071	0.2948	-0.13245	0.015717	-0.11078	-0.093994	0.029755	-0.023804	-0.012817	0.029755	0.021667	0.027161	0.053864	-0.93536	-0.27954	-0.045166	0.029602	0.15167	0.49286	-0.10666	-0.035858	0.037842	0.036316	0.000458	0.10941	-0.045776	-0.004272	-0.004272
52.041	-0.015106	0.34622	-0.086823	0.002747	-0.099487	0.35385	-0.15259	0.020294	-0.021973	0.04837	-0.029449	-0.010681	-0.15488	0.049591	0.093994	0.03067	0.026245	-1.0623	-0.34561	-0.053101	0.009613	0.14603	0.48691	-0.13138	-0.034027	0.041351	0.032196	-0.24429	0.013885	-0.20981	-0.006256	-0.009003
52.042	-0.01358	0.34042	-0.09903	0.00885	-0.05127	0.49469	-0.14206	-0.001068	0.044861	0.15091	-0.039978	-0.015259	0.58624	0.075531	0.3006	0.027618	0.031738	-1.1224	-0.31265	-0.083923	0.004425	0.12405	0.43106	-0.11261	-0.000458	0.025787	0.066376	0.017242	-0.25909	-0.46463	-0.006561	-0.003967
52.043	-0.013123	0.33737	0.002899	-0.001831	-0.037994	0.66422	-0.16235	0.002899	0.11429	0.29205	-0.077209	-0.03006	0.54031	0.018311	0.63889	0.020142	0.040588	-1.2096	-0.34668	-0.13062	-0.005493	0.11444	0.40741	-0.089722	-0.028076	0.008698	0.07843	0.12833	-0.40314	-0.045624	-0.009003	-0.008392
52.044	-0.022888	0.26718	0.12726	0.002289	-0.079651	0.16205	-0.20493	-0.006714	0.14343	0.35507	-0.080566	-0.022736	0.1413	-0.037689	0.060272	0.029602	0.044861	-1.266	-0.25253	-0.10071	-0.006714	0.10193	0.3302	-0.058594	-0.002899	0.001526	0.10284	-0.018158	-0.40161	0.46478	-0.007935	-0.004578
52.045	-0.024567	0.24292	0.053406	0.013275	-0.11688	-0.33508	-0.15213	0.006256	0.097504	0.22492	-0.005341	-0.03418	-0.13275	0.066223	0.298	0.0177	0.034485	-1.3936	-0.2475	-0.027924	0.007629	0.12863	0.20645	-0.057983	-0.00061	0.030365	0.10178	-0.1297	-0.28351	-0.094299	-0.010223	-0.012512
52.046	-0.04364	0.27069	-0.02121	0.016632	-0.018463	-0.57983	-0.11826	-0.002594	0.093079	-0.027008	0.024109	-0.017853	0.4805	0.065613	0.005493	0.014648	0.027771	-1.4241	-0.2771	0.088959	0.030365	0.14633	0.17914	-0.034637	0.009308	0.014801	0.084839	-0.37399	-0.67383	-1.0493	-0.006561	-0.006104
52.047	-0.03891	0.25787	-0.075073	0.03067	-0.036926	-0.10193	-0.073547	-0.004578	0.081024	-0.031433	0.11932	-0.016937	0.71091	0.040283	-0.26047	0.008545	0.050507	-1.4792	-0.327	0.1001	0.044708	0.14954	0.15411	-0.023041	0.024719	0.031586	0.046692	-0.52689	-0.47211	-1.3019	-0.005493	-0.007019
52.048	-0.046387	0.23285	-0.058136	0.007629	-0.050507	0.056458	-0.073395	-0.006104	-0.093842	-0.081177	0.18021	-0.02243	0.4985	-0.015106	-0.27573	0.018005	0.064545	-1.4444	-0.31616	0.1004	0.048828	0.14832	0.20157	-0.032349	-0.002441	0.035553	0.002289	0.076904	-0.22903	-0.67993	-0.008087	0.000305
